<?xml version="1.0" standalone="no"?>
<svg xmlns:xlink="http://www.w3.org/1999/xlink" id="wave" style="transform:rotate(0deg); transition: 0.3s" viewBox="0 0 1440 210" version="1.1" xmlns="http://www.w3.org/2000/svg"><defs><linearGradient id="sw-gradient-0" x1="0" x2="0" y1="1" y2="0"><stop stop-color="rgba(212.061, 203.396, 200.613, 1)" offset="0%"/><stop stop-color="rgba(237.106, 237.106, 237.106, 1)" offset="100%"/></linearGradient></defs><path style="transform:translate(0, 0px); opacity:1" fill="url(#sw-gradient-0)" d="M0,63L10,70C20,77,40,91,60,105C80,119,100,133,120,140C140,147,160,147,180,122.5C200,98,220,49,240,42C260,35,280,70,300,84C320,98,340,91,360,73.5C380,56,400,28,420,14C440,0,460,0,480,24.5C500,49,520,98,540,129.5C560,161,580,175,600,161C620,147,640,105,660,98C680,91,700,119,720,129.5C740,140,760,133,780,136.5C800,140,820,154,840,150.5C860,147,880,126,900,112C920,98,940,91,960,84C980,77,1000,70,1020,87.5C1040,105,1060,147,1080,164.5C1100,182,1120,175,1140,150.5C1160,126,1180,84,1200,66.5C1220,49,1240,56,1260,63C1280,70,1300,77,1320,94.5C1340,112,1360,140,1380,143.5C1400,147,1420,126,1430,115.5L1440,105L1440,210L1430,210C1420,210,1400,210,1380,210C1360,210,1340,210,1320,210C1300,210,1280,210,1260,210C1240,210,1220,210,1200,210C1180,210,1160,210,1140,210C1120,210,1100,210,1080,210C1060,210,1040,210,1020,210C1000,210,980,210,960,210C940,210,920,210,900,210C880,210,860,210,840,210C820,210,800,210,780,210C760,210,740,210,720,210C700,210,680,210,660,210C640,210,620,210,600,210C580,210,560,210,540,210C520,210,500,210,480,210C460,210,440,210,420,210C400,210,380,210,360,210C340,210,320,210,300,210C280,210,260,210,240,210C220,210,200,210,180,210C160,210,140,210,120,210C100,210,80,210,60,210C40,210,20,210,10,210L0,210Z"/></svg>