<?xml version="1.0" standalone="no"?>
<!DOCTYPE svg PUBLIC "-//W3C//DTD SVG 20010904//EN"
 "http://www.w3.org/TR/2001/REC-SVG-20010904/DTD/svg10.dtd">
<svg version="1.0" xmlns="http://www.w3.org/2000/svg"
 width="694.000000pt" height="694.000000pt" viewBox="0 0 694.000000 694.000000"
 preserveAspectRatio="xMidYMid meet">
<metadata>
Created by potrace 1.14, written by Peter Selinger 2001-2017
</metadata>
<g transform="translate(0.000000,694.000000) scale(0.100000,-0.100000)"
fill="#000000" stroke="none">
<path d="M3200 6934 c-230 -27 -316 -40 -435 -65 -867 -179 -1647 -694 -2147
-1419 -398 -577 -590 -1210 -589 -1945 1 -398 54 -763 163 -1120 163 -536 429
-977 828 -1375 562 -562 1297 -910 2095 -995 180 -19 530 -19 710 0 1132 120
2122 771 2675 1760 217 387 350 790 417 1266 25 177 25 681 0 858 -114 802
-445 1478 -992 2026 -544 544 -1226 879 -2016 990 -109 16 -622 29 -709 19z
m660 -138 c136 -21 401 -76 419 -86 9 -4 45 -15 81 -24 110 -28 220 -65 345
-118 158 -67 413 -196 482 -246 17 -12 34 -22 37 -22 19 0 241 -161 376 -274
98 -81 340 -320 421 -416 94 -110 289 -378 289 -396 0 -3 13 -24 29 -47 61
-90 194 -353 246 -489 68 -175 145 -476 176 -683 29 -199 37 -582 15 -805 -60
-625 -259 -1165 -604 -1640 -30 -41 -61 -82 -68 -90 -8 -8 -40 -46 -71 -85
-85 -104 -373 -388 -493 -487 -121 -100 -296 -225 -358 -257 -23 -12 -83 -47
-134 -78 -104 -63 -397 -209 -443 -221 -29 -8 -30 -11 -36 -73 -5 -63 -6 -63
-7 -13 -1 28 -4 53 -7 56 -3 3 -36 -5 -73 -18 -175 -62 -439 -115 -697 -140
-690 -68 -1345 80 -1969 444 -151 88 -178 106 -168 117 4 5 2 5 -5 2 -6 -4
-29 8 -52 25 -22 18 -80 65 -128 103 -154 123 -287 251 -277 266 4 7 3 9 -4 6
-5 -4 -37 23 -69 60 -32 37 -68 79 -81 94 -56 64 -141 183 -137 190 3 4 0 11
-6 15 -8 4 -9 3 -5 -4 4 -7 5 -12 3 -12 -3 0 -24 30 -47 67 -24 38 -59 93 -79
123 -212 324 -406 804 -486 1205 -38 191 -49 322 -50 600 0 359 24 594 84 820
75 281 221 682 244 668 6 -3 7 -1 3 5 -8 13 29 89 54 110 8 8 9 10 2 7 -14 -7
158 280 209 350 105 142 131 175 138 170 5 -2 8 1 7 8 -2 20 73 99 86 91 7 -4
8 -3 4 4 -16 26 407 444 429 424 5 -4 5 -2 1 5 -7 12 31 40 47 35 5 -1 6 2 3
7 -7 11 72 69 214 158 357 225 672 351 1085 437 125 26 331 62 400 69 90 10
532 -2 625 -17z"/>
<path d="M3285 5843 c-144 -16 -287 -39 -375 -58 -316 -70 -714 -270 -975
-490 -53 -45 -214 -207 -262 -265 -57 -68 -179 -236 -215 -295 -173 -287 -287
-649 -319 -1012 -29 -322 30 -692 158 -1003 53 -128 142 -307 168 -340 6 -8
24 -37 40 -65 52 -91 167 -236 282 -355 62 -64 109 -121 105 -125 -4 -5 -1 -5
6 -1 10 6 87 -45 112 -75 34 -39 370 -229 406 -229 9 0 53 17 98 38 44 21 102
47 127 57 l45 19 -48 43 c-106 94 -203 207 -192 224 4 7 3 9 -4 5 -12 -7 -29
15 -96 127 -27 44 -44 83 -40 90 4 6 3 8 -1 4 -22 -20 -139 296 -166 446 -54
309 -29 606 76 875 79 201 165 331 326 491 50 50 179 149 252 194 173 105 487
181 725 176 151 -3 379 -54 508 -114 42 -19 79 -33 82 -31 2 3 11 -2 19 -10 8
-8 61 -46 116 -86 236 -164 423 -416 521 -697 83 -237 81 -602 -5 -886 -11
-38 -25 -85 -30 -103 -9 -30 -46 -115 -86 -199 -8 -18 -20 -30 -26 -26 -6 3
-7 1 -3 -5 4 -6 -4 -27 -16 -45 -84 -126 -93 -136 -101 -124 -5 7 -6 4 -3 -9
5 -16 -14 -41 -83 -115 -49 -52 -116 -116 -150 -144 -62 -52 -72 -65 -45 -65
8 0 13 -4 10 -9 -4 -5 3 -7 14 -4 11 3 20 1 20 -4 0 -5 10 -9 23 -10 12 -1 86
-19 165 -39 129 -33 146 -35 175 -23 18 8 37 12 42 11 6 -2 7 0 3 3 -4 4 21
22 55 39 34 17 66 34 72 39 31 23 85 56 85 51 0 -3 6 1 14 8 7 7 24 20 36 28
98 66 240 195 342 312 25 29 56 63 67 75 12 12 21 26 21 31 0 13 37 44 42 35
3 -4 3 -2 1 6 -2 7 17 42 42 76 25 35 45 67 45 71 0 4 6 15 14 23 44 50 215
443 236 541 5 19 17 79 29 132 42 198 54 338 48 553 -9 302 -41 506 -108 705
-76 222 -233 508 -382 695 -48 60 -248 259 -338 335 -90 78 -128 102 -145 96
-8 -3 -12 -2 -9 3 6 11 -53 54 -140 101 -176 96 -227 120 -295 144 -41 14
-102 34 -135 46 -111 39 -333 90 -457 105 -110 13 -435 19 -523 8z m545 -127
c0 -2 -8 -10 -17 -17 -16 -13 -17 -12 -4 4 13 16 21 21 21 13z m20 -16 c0 -5
-5 -10 -11 -10 -5 0 -7 5 -4 10 3 6 8 10 11 10 2 0 4 -4 4 -10z m-63 -77 c-3
-10 -5 -4 -5 12 0 17 2 24 5 18 2 -7 2 -21 0 -30z m-26 -20 c-12 -20 -14 -14
-5 12 4 9 9 14 11 11 3 -2 0 -13 -6 -23z m29 -13 c0 -5 -5 -10 -11 -10 -5 0
-7 5 -4 10 3 6 8 10 11 10 2 0 4 -4 4 -10z m835 -30 c3 -5 1 -10 -4 -10 -6 0
-11 5 -11 10 0 6 2 10 4 10 3 0 8 -4 11 -10z m-892 -13 c3 -8 -1 -14 -8 -14
-7 0 -11 6 -8 14 3 7 6 13 8 13 2 0 5 -6 8 -13z m-23 -97 c0 -5 -2 -10 -4 -10
-3 0 -8 5 -11 10 -3 6 -1 10 4 10 6 0 11 -4 11 -10z m-20 -50 c0 -5 -5 -10
-11 -10 -5 0 -7 5 -4 10 3 6 8 10 11 10 2 0 4 -4 4 -10z m-4 -75 c3 -22 3 -37
-1 -33 -4 4 -11 26 -15 48 -4 23 -4 38 0 33 5 -4 12 -26 16 -48z m24 12 c0
-24 -3 -28 -10 -17 -13 20 -13 63 0 55 6 -3 10 -21 10 -38z m-85 -144 c-5 -21
-8 -24 -16 -12 -5 7 -9 19 -9 24 0 6 5 3 10 -5 7 -12 10 -8 11 15 0 17 3 24 6
17 3 -7 2 -25 -2 -39z m1502 -19 c-3 -3 -12 -4 -19 -1 -8 3 -5 6 6 6 11 1 17
-2 13 -5z m-1504 -101 c4 -18 3 -33 -2 -33 -4 0 -8 6 -8 13 -1 6 -4 32 -7 57
-6 48 5 22 17 -37z m1567 47 c0 -5 -2 -10 -4 -10 -3 0 -8 5 -11 10 -3 6 -1 10
4 10 6 0 11 -4 11 -10z m-1590 -55 c0 -17 -5 -36 -11 -42 -6 -6 -8 -17 -4 -23
6 -9 12 -6 21 11 l13 24 1 -27 c0 -14 -5 -28 -12 -30 -9 -3 -8 -34 3 -129 l16
-124 -1 95 c-1 99 7 150 24 150 6 0 10 -18 10 -40 0 -29 4 -40 15 -40 13 0 15
-24 15 -160 0 -100 -4 -160 -10 -160 -6 0 -10 -35 -10 -85 0 -71 -2 -83 -15
-79 -8 4 -15 1 -15 -6 0 -6 -4 -8 -10 -5 -6 3 -7 -1 -4 -9 3 -9 1 -16 -6 -16
-7 0 -9 -8 -5 -20 3 -11 2 -20 -3 -20 -4 0 -13 17 -18 38 -5 20 -14 36 -20 35
-13 -2 -16 42 -16 277 0 198 20 449 34 428 4 -7 8 -27 8 -43z m1483 48 c-7 -2
-19 -2 -25 0 -7 3 -2 5 12 5 14 0 19 -2 13 -5z m-96 -9 c-3 -3 -12 -4 -19 -1
-8 3 -5 6 6 6 11 1 17 -2 13 -5z m160 0 c-3 -3 -12 -4 -19 -1 -8 3 -5 6 6 6
11 1 17 -2 13 -5z m-207 -29 c0 -11 -29 -11 -33 -1 -4 10 1 12 14 9 10 -3 19
-7 19 -8z m-162 -31 l23 -7 -27 -13 c-15 -8 -29 -12 -32 -9 -3 2 3 8 13 12 18
6 18 7 -1 14 -23 9 -8 11 24 3z m59 0 c-3 -3 -12 -4 -19 -1 -8 3 -5 6 6 6 11
1 17 -2 13 -5z m-120 -46 c-17 -11 -47 -10 -47 2 0 5 7 7 15 4 11 -5 13 -2 9
11 -6 15 -4 15 14 4 15 -10 18 -16 9 -21z m-1100 -90 c-2 -13 -4 -3 -4 22 0
25 2 35 4 23 2 -13 2 -33 0 -45z m954 52 c17 0 1 -17 -21 -23 -17 -4 -19 -3
-9 9 14 17 -2 19 -19 2 -8 -8 -12 -9 -12 -1 0 14 20 23 38 17 8 -2 18 -4 23
-4z m48 -17 c-23 -12 -44 -23 -48 -23 -3 -1 -19 -11 -35 -24 -16 -14 -36 -22
-44 -18 -10 3 -13 1 -9 -6 4 -6 -7 -21 -25 -33 -18 -13 -36 -27 -39 -32 -4 -5
-11 -7 -16 -4 -6 4 -18 0 -28 -7 -15 -11 -21 -11 -32 -1 -7 7 -18 15 -25 18
-25 9 16 36 62 40 57 6 86 17 70 27 -7 4 3 7 21 6 34 -2 68 16 111 60 12 11
34 21 50 21 27 0 27 -1 -13 -24z m-330 -150 c-9 -10 -6 -12 20 -7 20 4 31 3
31 -5 0 -6 -9 -11 -20 -11 -11 0 -20 -5 -20 -11 0 -12 38 -3 60 16 43 35 39
21 -8 -26 -51 -51 -54 -53 -68 -34 -8 10 -14 14 -14 9 0 -6 5 -15 11 -21 18
-18 -17 -62 -46 -59 -16 2 -22 -1 -18 -11 4 -10 9 -11 19 -2 20 16 17 2 -5
-30 -11 -14 -31 -49 -46 -76 l-27 -50 5 38 c3 20 2 37 -3 37 -14 0 -21 61 -12
95 6 20 22 38 48 52 22 13 38 29 36 37 -1 9 6 21 18 28 11 7 20 20 20 29 0 8
7 16 15 16 11 0 12 -4 4 -14z m-139 -274 c0 -8 -7 -24 -15 -35 -19 -25 -19
-40 0 -24 21 17 28 8 16 -21 -9 -21 -10 -22 -11 -4 -1 16 -4 14 -15 -10 -10
-20 -13 -23 -9 -7 3 13 0 29 -6 37 -11 13 -8 62 6 99 6 15 7 15 20 -1 7 -10
14 -25 14 -34z m-561 -179 c0 -9 -4 -8 -9 5 -5 11 -9 27 -9 35 0 9 4 8 9 -5 5
-11 9 -27 9 -35z m538 28 c-3 -8 -6 -5 -6 6 -1 11 2 17 5 13 3 -3 4 -12 1 -19z
m-472 -17 c3 -5 2 -12 -3 -15 -5 -3 -9 1 -9 9 0 17 3 19 12 6z m402 -83 c-2
-13 -4 -3 -4 22 0 25 2 35 4 23 2 -13 2 -33 0 -45z m-144 15 c-7 -2 -19 -2
-25 0 -7 3 -2 5 12 5 14 0 19 -2 13 -5z m137 -47 c0 -11 -19 -15 -25 -6 -3 5
1 10 9 10 9 0 16 -2 16 -4z"/>
<path d="M3571 4904 c0 -11 3 -14 6 -6 3 7 2 16 -1 19 -3 4 -6 -2 -5 -13z"/>
<path d="M3622 4540 c0 -19 2 -27 5 -17 2 9 2 25 0 35 -3 9 -5 1 -5 -18z"/>
<path d="M3622 4475 c0 -16 2 -22 5 -12 2 9 2 23 0 30 -3 6 -5 -1 -5 -18z"/>
<path d="M3602 4420 c0 -19 2 -27 5 -17 2 9 2 25 0 35 -3 9 -5 1 -5 -18z"/>
<path d="M3621 4424 c0 -11 3 -14 6 -6 3 7 2 16 -1 19 -3 4 -6 -2 -5 -13z"/>
<path d="M4444 4856 c-10 -8 -17 -17 -14 -19 3 -3 16 3 29 14 27 22 15 26 -15
5z"/>
<path d="M4193 4608 c-1 -17 -8 -35 -15 -40 -10 -6 -8 -8 5 -8 10 0 17 8 17
19 0 11 6 21 13 24 9 3 8 8 -3 20 -14 15 -15 13 -17 -15z"/>
<path d="M4119 4512 c-3 -20 -2 -29 4 -23 5 5 7 19 5 32 -3 20 -5 19 -9 -9z"/>
<path d="M3332 3615 c-90 -20 -220 -88 -291 -151 -33 -30 -64 -55 -68 -55 -4
-1 -7 -6 -5 -11 2 -6 -4 -18 -12 -27 -21 -23 -82 -158 -91 -201 -27 -134 -24
-240 19 -520 82 -544 275 -1170 506 -1650 77 -161 74 -156 97 -142 19 12 116
222 183 397 33 88 65 169 70 180 5 11 30 88 55 170 26 83 51 161 56 175 14 38
43 150 108 416 133 539 164 777 125 949 -9 39 -17 80 -18 92 0 11 -4 19 -7 18
-9 -6 -50 86 -43 97 4 6 3 8 -3 5 -6 -4 -18 4 -26 17 -121 184 -416 293 -655
241z m268 -177 c152 -55 281 -192 310 -327 30 -142 -21 -301 -131 -409 -18
-18 -39 -30 -47 -27 -7 2 -10 0 -7 -5 4 -6 -29 -27 -72 -48 -76 -36 -81 -37
-193 -37 -110 0 -117 1 -175 32 -69 37 -162 120 -199 178 -31 49 -66 158 -66
205 1 78 50 237 70 225 5 -3 7 0 5 8 -3 7 8 31 24 54 50 68 113 112 208 144
76 26 98 29 163 24 41 -2 91 -10 110 -17z"/>
</g>
</svg>
